<svg xmlns="http://www.w3.org/2000/svg" viewBox="0 0 32 32" shape-rendering="crispEdges">
  <!-- Shelf app icon: pixel elf peeking over a camera with an amber darkroom lens.
       32x32 logical pixel grid. Palette:
       - #d4a843 gold (ears)
       - #3d6a9e blue (elf face)
       - #e89aac rose (cheeks)
       - #fce1a8 soft catchlight in the eye
       - #0c0c0c deep black (lens void, eyes)
       - #1a1a20 camera body
       - #e0a82e amber (safelight glow / lens accent + sparkles)
       - #c45050 rec dot
  -->

  <!-- ─── Elf head peeking above the camera (rows 0-7) ───────────────── -->

  <!-- Row 0: ears -->
  <rect x="8"  y="0" width="2" height="2" fill="#d4a843"/>
  <rect x="20" y="0" width="2" height="2" fill="#d4a843"/>

  <!-- Row 1: ears + face top -->
  <rect x="8"  y="2" width="2" height="2" fill="#d4a843"/>
  <rect x="10" y="2" width="10" height="2" fill="#3d6a9e"/>
  <rect x="20" y="2" width="2" height="2" fill="#d4a843"/>

  <!-- Row 2: face with eyes (right eye winks — 2px closed line rather than dot) -->
  <rect x="10" y="4" width="2" height="2" fill="#3d6a9e"/>
  <!-- left eye: dot -->
  <rect x="12" y="4" width="2" height="2" fill="#0c0c0c"/>
  <!-- eye catchlight sparkle (tiny soft highlight inside the eye) -->
  <rect x="12.6" y="4" width="0.8" height="0.8" fill="#fce1a8"/>
  <rect x="14" y="4" width="2" height="2" fill="#3d6a9e"/>
  <!-- right eye: wink (thinner closed line of black, offset to read as closed) -->
  <rect x="16" y="5" width="2" height="1" fill="#0c0c0c"/>
  <rect x="18" y="4" width="2" height="2" fill="#3d6a9e"/>
  <rect x="20" y="4" width="2" height="2" fill="#3d6a9e"/>

  <!-- Row 3: chin — with rosy cheeks underneath the eyes -->
  <rect x="10" y="6" width="2" height="2" fill="#e89aac"/>  <!-- left cheek -->
  <rect x="12" y="6" width="2" height="2" fill="#3d6a9e"/>
  <rect x="14" y="6" width="2" height="2" fill="#3d6a9e"/>
  <rect x="16" y="6" width="2" height="2" fill="#3d6a9e"/>
  <rect x="18" y="6" width="2" height="2" fill="#e89aac"/>  <!-- right cheek -->

  <!-- ─── Little sparkles floating around the elf's head ──────────────── -->

  <!-- Top-right sparkle (4-pixel cross) at ~row 2 -->
  <rect x="26" y="2" width="1" height="1" fill="#e0a82e"/>
  <rect x="25" y="3" width="3" height="1" fill="#e0a82e"/>
  <rect x="26" y="4" width="1" height="1" fill="#e0a82e"/>

  <!-- Top-left tiny sparkle at row 4 -->
  <rect x="4" y="4" width="1" height="1" fill="#e0a82e"/>
  <rect x="3" y="5" width="3" height="1" fill="#e0a82e"/>
  <rect x="4" y="6" width="1" height="1" fill="#e0a82e"/>

  <!-- ─── Camera body (rows 8-28) ─────────────────────────────────────── -->

  <!-- Viewfinder hump (prism top) -->
  <rect x="10" y="8"  width="12" height="2" fill="#1a1a20"/>

  <!-- Shutter button (amber) on top-left -->
  <rect x="4"  y="8"  width="2" height="2" fill="#e0a82e"/>
  <rect x="4"  y="10" width="2" height="2" fill="#1a1a20"/>

  <!-- Rec dot (red) on top-right -->
  <rect x="26" y="10" width="2" height="2" fill="#c45050"/>

  <!-- Main camera top edge -->
  <rect x="2"  y="10" width="2"  height="2" fill="#1a1a20"/>
  <rect x="6"  y="10" width="4"  height="2" fill="#1a1a20"/>
  <rect x="22" y="10" width="4"  height="2" fill="#1a1a20"/>
  <rect x="28" y="10" width="2"  height="2" fill="#1a1a20"/>

  <!-- Main camera body (dark block with cut-out for lens) rows 12-26 -->
  <rect x="2"  y="12" width="28" height="2" fill="#1a1a20"/>
  <rect x="2"  y="14" width="6"  height="2" fill="#1a1a20"/>
  <rect x="24" y="14" width="6"  height="2" fill="#1a1a20"/>
  <rect x="2"  y="16" width="4"  height="2" fill="#1a1a20"/>
  <rect x="26" y="16" width="4"  height="2" fill="#1a1a20"/>
  <rect x="2"  y="18" width="4"  height="2" fill="#1a1a20"/>
  <rect x="26" y="18" width="4"  height="2" fill="#1a1a20"/>
  <rect x="2"  y="20" width="4"  height="2" fill="#1a1a20"/>
  <rect x="26" y="20" width="4"  height="2" fill="#1a1a20"/>
  <rect x="2"  y="22" width="6"  height="2" fill="#1a1a20"/>
  <rect x="24" y="22" width="6"  height="2" fill="#1a1a20"/>
  <rect x="2"  y="24" width="28" height="2" fill="#1a1a20"/>
  <rect x="2"  y="26" width="28" height="2" fill="#1a1a20"/>

  <!-- ─── Lens: amber ring, deep black glass, highlight ──────────────── -->

  <!-- Outer amber ring (lens housing) -->
  <rect x="10" y="14" width="12" height="2" fill="#e0a82e"/>
  <rect x="8"  y="16" width="2"  height="2" fill="#e0a82e"/>
  <rect x="22" y="16" width="2"  height="2" fill="#e0a82e"/>
  <rect x="6"  y="18" width="2"  height="2" fill="#e0a82e"/>
  <rect x="24" y="18" width="2"  height="2" fill="#e0a82e"/>
  <rect x="6"  y="20" width="2"  height="2" fill="#e0a82e"/>
  <rect x="24" y="20" width="2"  height="2" fill="#e0a82e"/>
  <rect x="8"  y="22" width="2"  height="2" fill="#e0a82e"/>
  <rect x="22" y="22" width="2"  height="2" fill="#e0a82e"/>
  <rect x="10" y="24" width="12" height="2" fill="#e0a82e"/>

  <!-- Inner black glass -->
  <rect x="10" y="16" width="12" height="2" fill="#0c0c0c"/>
  <rect x="8"  y="18" width="16" height="2" fill="#0c0c0c"/>
  <rect x="8"  y="20" width="16" height="2" fill="#0c0c0c"/>
  <rect x="10" y="22" width="12" height="2" fill="#0c0c0c"/>

  <!-- Lens glass highlight (soft blue catchlight) -->
  <rect x="12" y="18" width="2" height="2" fill="#3d6a9e" opacity="0.8"/>
  <!-- Second smaller highlight for more sparkle -->
  <rect x="14.5" y="20.5" width="1" height="1" fill="#fce1a8" opacity="0.6"/>

  <!-- Bottom grip/feet -->
  <rect x="4"  y="28" width="4" height="2" fill="#1a1a20"/>
  <rect x="24" y="28" width="4" height="2" fill="#1a1a20"/>
</svg>
